<?xml version="1.0" encoding="UTF-8" standalone="no"?>
<svg
   xmlns:dc="http://purl.org/dc/elements/1.1/"
   xmlns:cc="http://creativecommons.org/ns#"
   xmlns:rdf="http://www.w3.org/1999/02/22-rdf-syntax-ns#"
   xmlns:svg="http://www.w3.org/2000/svg"
   xmlns="http://www.w3.org/2000/svg"
   xmlns:sodipodi="http://sodipodi.sourceforge.net/DTD/sodipodi-0.dtd"
   xmlns:inkscape="http://www.inkscape.org/namespaces/inkscape"
   viewBox="0 0 267.65268 20"
   height="20"
   width="267.65268"
   xml:space="preserve"
   version="1.1"
   id="svg3374"
   inkscape:version="0.91 r"
   sodipodi:docname="cpp-logotype.svg"><sodipodi:namedview
     pagecolor="#ffffff"
     bordercolor="#666666"
     borderopacity="1"
     objecttolerance="10"
     gridtolerance="10"
     guidetolerance="10"
     inkscape:pageopacity="0"
     inkscape:pageshadow="2"
     inkscape:window-width="1920"
     inkscape:window-height="1028"
     id="namedview3354"
     showgrid="false"
     inkscape:zoom="3.237909"
     inkscape:cx="459.0399"
     inkscape:cy="21.006466"
     inkscape:window-x="0"
     inkscape:window-y="0"
     inkscape:window-maximized="1"
     inkscape:current-layer="svg3374"
     borderlayer="false"
     fit-margin-top="0"
     fit-margin-left="0"
     fit-margin-right="0"
     fit-margin-bottom="0" /><metadata
     id="metadata3380"><rdf:RDF><cc:Work
         rdf:about=""><dc:format>image/svg+xml</dc:format><dc:type
           rdf:resource="http://purl.org/dc/dcmitype/StillImage" /><dc:title></dc:title></cc:Work></rdf:RDF></metadata><defs
     id="defs3378" /><g
     transform="matrix(0.59908938,0,0,-0.59908938,0,20)"
     id="g3382"
     style="fill:#ffffff"><g
       transform="scale(0.1,0.1)"
       id="g3384"
       style="fill:#ffffff"><path
         id="path3386"
         style="fill:#ffffff;fill-opacity:1;fill-rule:nonzero;stroke:none"
         d="M 247.004,18.4297 C 203.684,5.11719 161.746,4.09375 156.68,4.09375 67.2813,4.09375 0,73.2188 0,169.473 0,280.586 80.6406,333.84 166.352,333.84 c 18.898,0 36.402,-2.57 56.679,-11.266 5.074,-2.054 14.289,-5.64 18.899,-5.64 4.601,0 8.297,2.054 12.441,4.097 l 5.988,-2.043 c -1.843,-9.734 -11.515,-58.371 -13.355,-69.636 l -7.379,2.054 c -2.305,21.5 -2.766,28.157 -9.215,35.317 -6.449,8.199 -33.64,29.187 -73.73,29.187 -102.305,0 -102.305,-117.242 -102.305,-143.871 0,-140.2929 91.238,-150.5468 109.215,-150.5468 40.555,0 74.652,23.5586 87.558,67.6055 l 10.594,-1.543 C 261.285,80.3867 261.285,76.2891 258.059,63.4844 257.133,59.9023 252.527,42.5 252.07,39.4258 l -5.066,-20.9961"
         inkscape:connector-curvature="0" /><path
         id="path3388"
         style="fill:#ffffff;fill-opacity:1;fill-rule:nonzero;stroke:none"
         d="m 377.398,140.805 c 12.446,-2.055 29.957,-4.614 49.774,-4.614 15.211,0 22.578,1.032 29.953,2.055 -12.445,37.875 -25.348,76.797 -40.555,111.106 L 377.398,140.805 Z M 289.848,17.9102 c 7.375,1.5429 18.89,4.1015 27.648,19.9726 16.133,28.6797 95.848,246.2892 101.84,263.6912 4.605,12.805 7.367,22.016 10.141,31.239 l 11.976,0 c 2.766,-10.239 5.527,-21.504 11.063,-38.407 9.675,-30.207 55.754,-162.312 64.968,-189.449 26.735,-82.4375 34.567,-83.9609 53,-87.0468 l 0,-10.23442 c -10.601,1.02344 -21.199,2.0586 -40.55,2.0586 -28.571,0 -50.231,-2.57813 -64.52,-3.58204 l 0,11.75786 c 11.984,2.0625 23.043,7.1875 23.043,18.9453 0,7.1679 -22.578,74.2535 -24.883,81.4215 -8.297,1.032 -13.359,1.528 -33.179,1.528 -17.051,0 -39.168,0 -61.29,-3.582 L 355.281,79.3594 c -3.218,-9.211 -11.058,-29.6914 -11.058,-37.375 0,-18.9492 22.121,-22.0117 35.023,-24.0742 l 0,-11.75786 c -3.23,0 -17.051,0.4961 -30.418,1.00391 -13.359,0.51953 -25.805,1.03516 -26.723,1.03516 -5.535,0 -24.882,0 -32.257,-0.51563 l 0,10.23442"
         inkscape:connector-curvature="0" /><path
         id="path3390"
         style="fill:#ffffff;fill-opacity:1;fill-rule:nonzero;stroke:none"
         d="m 598.594,22.5195 c 7.832,1.0352 19.812,4.1016 25.804,12.2969 7.832,10.75 7.832,15.875 8.293,140.8086 0,94.711 0,103.418 -1.382,116.227 -2.301,21.5 -15.668,23.043 -29.028,24.058 l 0,12.289 c 17.508,-0.511 23.039,-1.027 56.215,-1.027 35.024,0 43.777,0.516 61.293,1.539 l 0,-13.305 c -14.75,-2.054 -27.648,-4.609 -32.254,-13.832 -6.457,-13.308 -7.379,-106.508 -7.379,-129.535 l -0.461,-78.8593 c 0,-31.7344 0.461,-47.6133 4.606,-55.2969 3.691,-7.6797 14.754,-7.6797 35.949,-7.6797 89.398,0 100.457,22.5313 107.824,46.5977 l 11.067,-1.5352 C 837.297,58.8867 836.836,55.3047 821.168,3.57422 800.43,7.67578 790.293,9.73438 727.621,9.73438 l -128.105,0 -0.922,12.78512"
         inkscape:connector-curvature="0" /><path
         id="path3392"
         style="fill:#ffffff;fill-opacity:1;fill-rule:nonzero;stroke:none"
         d="m 1105.47,139.262 c 9.22,0 63.14,1.031 63.14,82.433 0,70.157 -35.95,92.172 -64.98,92.172 -11.52,0 -18.89,-3.07 -24.42,-5.64 -3.23,-80.379 -3.23,-88.575 -2.76,-164.356 6.9,-1.535 16.59,-4.609 29.02,-4.609 z M 1120.22,3.57422 c -7.83,1.03516 -14.75,2.0625 -23.96,2.57812 -9.67,0.4961 -21.2,0.4961 -39.17,0.4961 -17.97,0 -18.43,0 -46.54,-3.07422 -3.69,-0.50781 -11.062,0 -11.062,0 l 0,12.81248 c 26.272,8.1914 27.182,12.2969 28.572,17.4024 3.22,12.8047 3.22,71.6799 3.22,90.1129 0,23.039 -0.45,31.75 -1.84,112.145 -1.38,76.789 -3.68,77.305 -34.096,79.359 -0.461,3.582 -0.461,5.625 -0.461,7.68 0,2.043 0,4.602 0.461,7.668 6.916,-1.012 41.466,-1.524 58.056,-1.524 l 46.09,2.04 c 74.19,0 123.49,-52.227 123.49,-105.993 0,-33.793 -26.73,-103.418 -127.64,-103.418 -6.91,0 -13.37,0 -18.89,0.512 -0.47,-16.902 0,-77.828 3.22,-88.5819 3.68,-11.2696 22.12,-15.3594 40.55,-15.3594 l 0,-14.85548"
         inkscape:connector-curvature="0" /><path
         id="path3394"
         style="fill:#ffffff;fill-opacity:1;fill-rule:nonzero;stroke:none"
         d="m 1312.84,197.125 c 0,-84.488 36.4,-178.6953 111.06,-178.6953 29.49,0 91.23,19.9687 91.23,114.6953 0,66.559 -29.02,179.711 -111.5,179.711 -22.13,0 -90.79,-11.262 -90.79,-115.711 z M 1568.6,166.914 C 1568.6,80.8984 1507.77,0 1413.76,0 c -97.23,0 -154.83,79.8711 -154.83,169.473 0,99.847 77.41,163.34 157.59,163.34 84.33,0 152.08,-72.715 152.08,-165.899"
         inkscape:connector-curvature="0" /><path
         id="path3396"
         style="fill:#ffffff;fill-opacity:1;fill-rule:nonzero;stroke:none"
         d="m 1609.14,22.5195 c 7.83,1.0352 19.8,4.1016 25.8,12.2969 7.83,10.75 7.83,15.875 8.3,140.8086 0,94.711 0,103.418 -1.39,116.227 -2.3,21.5 -15.66,23.043 -29.02,24.058 l 0,12.289 c 17.5,-0.511 23.03,-1.027 56.21,-1.027 35.02,0 43.78,0.516 61.29,1.539 l 0,-13.305 c -14.75,-2.054 -27.65,-4.609 -32.25,-13.832 -6.46,-13.308 -7.38,-106.508 -7.38,-129.535 l -0.46,-78.8593 c 0,-31.7344 0.46,-47.6133 4.6,-55.2969 3.69,-7.6797 14.75,-7.6797 35.96,-7.6797 89.39,0 100.45,22.5313 107.82,46.5977 l 11.06,-1.5352 c -1.84,-16.3789 -2.3,-19.9609 -17.97,-71.69138 -20.74,4.10156 -30.88,6.16016 -93.55,6.16016 l -128.11,0 -0.91,12.78512"
         inkscape:connector-curvature="0" /><path
         id="path3398"
         style="fill:#ffffff;fill-opacity:1;fill-rule:nonzero;stroke:none"
         d="m 1918.35,16.3867 c 28.57,2.5508 33.19,9.7188 35.94,19.9727 2.78,10.75 2.78,81.4066 2.78,99.3206 0,6.152 0,8.711 -0.47,17.918 -14.28,25.613 -26.27,47.109 -74.19,118.281 -17.51,24.07 -31.34,43.016 -60.36,43.016 l -1.86,11.777 c 4.61,0 17.52,-0.516 30.88,-0.516 13.36,-0.511 26.74,-1.027 31.34,-1.027 l 63.13,1.027 -1.84,-13.32 c -4.15,0 -24.43,0 -24.43,-9.207 0,-9.223 50.7,-87.047 78.34,-124.418 58.07,100.863 60.82,105.984 60.82,116.738 0,15.36 -15.66,15.36 -28.56,15.871 l 1.38,13.825 c 7.83,0 49.31,-2.055 49.77,-2.055 7.37,0 39.17,1.023 46.08,1.023 l -0.46,-15.359 c -33.18,-2.043 -41.94,-2.555 -114.75,-136.711 -1.84,-4.086 -4.14,-10.75 -7.83,-14.848 0,-19.449 0,-112.6442 1.85,-122.8786 2.3,-10.7539 28.11,-16.9062 38.25,-18.4297 l -0.93,-11.77732 c -15.21,1.54296 -39.17,4.08984 -58.53,4.08984 -10.58,0 -57.6,-4.60547 -66.81,-4.60547 l 0.46,12.29295"
         inkscape:connector-curvature="0" /><path
         id="path3400"
         style="fill:#ffffff;fill-opacity:1;fill-rule:nonzero;stroke:none"
         d="m 2398.05,139.262 c 9.21,0 63.14,1.031 63.14,82.433 0,70.157 -35.95,92.172 -64.98,92.172 -11.52,0 -18.89,-3.07 -24.42,-5.64 -3.23,-80.379 -3.23,-88.575 -2.77,-164.356 6.91,-1.535 16.6,-4.609 29.03,-4.609 z M 2412.81,3.57422 c -7.84,1.03516 -14.76,2.0625 -23.97,2.57812 -9.68,0.4961 -21.2,0.4961 -39.18,0.4961 -17.97,0 -18.42,0 -46.54,-3.07422 -3.68,-0.50781 -11.05,0 -11.05,0 l 0,12.81248 c 26.26,8.1914 27.18,12.2969 28.57,17.4024 3.22,12.8047 3.22,71.6799 3.22,90.1129 0,23.039 -0.46,31.75 -1.83,112.145 -1.39,76.789 -3.7,77.305 -34.11,79.359 -0.46,3.582 -0.46,5.625 -0.46,7.68 0,2.043 0,4.602 0.46,7.668 6.92,-1.012 41.47,-1.524 58.06,-1.524 l 46.09,2.04 c 74.18,0 123.49,-52.227 123.49,-105.993 0,-33.793 -26.73,-103.418 -127.65,-103.418 -6.91,0 -13.36,0 -18.89,0.512 -0.46,-16.902 0,-77.828 3.22,-88.5819 3.69,-11.2696 22.13,-15.3594 40.57,-15.3594 l 0,-14.85548"
         inkscape:connector-curvature="0" /><path
         id="path3402"
         style="fill:#ffffff;fill-opacity:1;fill-rule:nonzero;stroke:none"
         d="m 2605.42,197.125 c 0,-84.488 36.4,-178.6953 111.06,-178.6953 29.49,0 91.23,19.9687 91.23,114.6953 0,66.559 -29.02,179.711 -111.51,179.711 -22.12,0 -90.78,-11.262 -90.78,-115.711 z m 255.76,-30.211 C 2861.18,80.8984 2800.35,0 2706.34,0 c -97.23,0 -154.83,79.8711 -154.83,169.473 0,99.847 77.41,163.34 157.59,163.34 84.33,0 152.08,-72.715 152.08,-165.899"
         inkscape:connector-curvature="0" /><path
         id="path3404"
         style="fill:#ffffff;fill-opacity:1;fill-rule:nonzero;stroke:none"
         d="m 2948.73,222.727 c 0.91,13.32 0.91,29.179 0.91,36.359 0,41.973 -13.82,52.223 -52.07,57.336 l 0.46,13.832 c 3.23,0 15.67,-1.024 23.97,-1.543 45.16,-2.555 46.54,-2.555 67.27,-2.555 34.56,-80.39 42.85,-99.336 76.96,-168.461 5.07,-9.211 31.79,-64.0036 32.26,-64.5153 11.06,23.5543 11.06,24.0663 28.11,60.9293 l 23.96,51.211 54.83,121.352 c 12.45,-0.516 67.75,-0.516 78.8,-0.516 l 0,-13.32 c -34.1,-5.625 -41.01,-8.695 -41.01,-62.461 0,-16.902 1.85,-175.6289 8.3,-205.3242 3.69,-16.8867 9.67,-20.4727 36.41,-22.0156 l 0,-13.30082 c -19.36,0.50002 -28.58,0.50002 -56.69,0.50002 -39.17,0 -48.84,-0.50002 -69.12,-2.55862 l -1.38,13.32032 c 32.71,9.7266 42.38,13.3125 42.38,69.6289 0,50.18 -2.74,120.32 -5.98,169.992 l -0.93,0 C 3137.65,137.734 3116,85 3086.97,10.7422 l -9.68,0 c -12.44,44.043 -17.51,54.793 -67.28,159.7538 -11.99,25.602 -30.87,65.031 -36.4,77.313 l -0.92,0 c -0.47,-16.891 -0.93,-19.446 -2.3,-39.418 -3.7,-51.711 -6.92,-95.243 -6.92,-140.8129 0,-33.2695 1.84,-40.957 41.94,-48.125 l -0.93,-11.26169 c -23.51,0.50781 -41.48,1.02734 -56.22,1.02734 -11.06,0 -20.74,0 -29.5,-0.51953 -8.29,-0.50781 -16.12,-1.02344 -24.42,-1.54297 l 0.93,12.29685 c 43.77,6.6524 44.71,29.6953 47.92,91.6559 l 5.54,111.618"
         inkscape:connector-curvature="0" /><path
         id="path3406"
         style="fill:#ffffff;fill-opacity:1;fill-rule:nonzero;stroke:none"
         d="m 3377.27,197.125 c 0,-84.488 36.41,-178.6953 111.06,-178.6953 29.49,0 91.24,19.9687 91.24,114.6953 0,66.559 -29.03,179.711 -111.52,179.711 -22.12,0 -90.78,-11.262 -90.78,-115.711 z m 255.74,-30.211 C 3633.01,80.8984 3572.21,0 3478.19,0 c -97.24,0 -154.82,79.8711 -154.82,169.473 0,99.847 77.41,163.34 157.58,163.34 84.34,0 152.06,-72.715 152.06,-165.899"
         inkscape:connector-curvature="0" /><path
         id="path3408"
         style="fill:#ffffff;fill-opacity:1;fill-rule:nonzero;stroke:none"
         d="m 3947.75,96.7773 c 0,15.8597 1.39,88.0587 1.39,102.3947 0,109.055 -3.7,114.18 -47.01,119.816 l 4.14,11.766 c 2.78,0.516 6.92,1.027 11.53,1.027 3.7,0 13.84,-1.027 24.42,-2.039 10.61,-1.543 21.66,-2.57 25.33,-2.57 2.31,0 31.81,1.027 37.81,1.027 l 0,-12.793 c -6.45,-0.511 -19.36,-0.511 -24.89,-12.289 -8.76,-18.433 -9.66,-105.476 -9.66,-132.621 -0.48,-17.398 -1.4,-93.6952 -1.4,-109.0507 0,-5.6445 0.92,-26.6289 1.4,-40.9648 l 0.9,-19.45706 -13.82,0 C 3942.22,33.7891 3917.8,60.4102 3893.38,86.0117 L 3751.91,237.055 c -6.01,6.672 -12.92,14.351 -18.89,19.461 -0.48,-10.235 -1.39,-33.789 -1.39,-44.032 L 3729.8,93.1797 c -0.48,-47.6133 -0.48,-66.0391 50.66,-74.75 0.47,-3.0703 0.95,-5.1172 0.95,-7.168 0,-1.52732 -0.48,-3.58592 -0.95,-7.16795 -11.97,2.05859 -21.64,3.0625 -29.03,3.58203 -6.91,0.51563 -11.97,0.51563 -14.75,0.51563 -10.1,0 -54.83,-3.58203 -64.03,-4.09766 -0.47,6.14065 -0.47,7.68355 0,14.33595 29.03,0.5078 31.79,18.4258 32.7,61.957 l 2.3,151.0433 c 0.95,42.508 0.48,77.312 -38.69,83.976 -0.47,5.625 -0.47,7.68 0,15.348 2.3,0 11.97,-1.012 21.67,-1.524 9.67,-0.519 19.8,-1.031 23.5,-1.031 l 21.64,0 c 28.58,-36.347 29.97,-37.89 107.84,-120.836 21.19,-23.558 42.38,-46.586 64.52,-69.117 l 39.62,-41.4687"
         inkscape:connector-curvature="0" /><path
         id="path3410"
         style="fill:#ffffff;fill-opacity:1;fill-rule:nonzero;stroke:none"
         d="m 4103.53,140.805 c 12.44,-2.055 29.97,-4.614 49.78,-4.614 15.19,0 22.58,1.032 29.95,2.055 -12.45,37.875 -25.34,76.797 -40.56,111.106 L 4103.53,140.805 Z M 4015.97,17.9102 c 7.38,1.5429 18.92,4.1015 27.67,19.9726 16.11,28.6797 95.84,246.2892 101.83,263.6912 4.61,12.805 7.37,22.016 10.14,31.239 l 11.97,0 c 2.79,-10.239 5.53,-21.504 11.06,-38.407 9.69,-30.207 55.78,-162.312 64.98,-189.449 26.75,-82.4375 34.58,-83.9609 53,-87.0468 l 0,-10.23442 c -10.59,1.02344 -21.2,2.0586 -40.56,2.0586 -28.56,0 -50.23,-2.57813 -64.5,-3.58204 l 0,11.75786 c 11.97,2.0625 23.02,7.1875 23.02,18.9453 0,7.1679 -22.57,74.2535 -24.89,81.4215 -8.27,1.032 -13.36,1.528 -33.16,1.528 -17.05,0 -39.17,0 -61.28,-3.582 l -13.83,-36.8636 c -3.22,-9.211 -11.06,-29.6914 -11.06,-37.375 0,-18.9492 22.12,-22.0117 35.03,-24.0742 l 0,-11.75786 c -3.23,0 -17.06,0.4961 -30.41,1.00391 -13.37,0.51953 -25.81,1.03516 -26.73,1.03516 -5.53,0 -24.9,0 -32.28,-0.51563 l 0,10.23442"
         inkscape:connector-curvature="0" /></g></g><rect
     style="fill:#ebb325;fill-opacity:1"
     id="rect3355"
     width="1.917086"
     height="19.17086"
     x="265.7356"
     y="0.41457018" /></svg>